#Comment line ignore any data following # character 
#Hierarchical Translation and Rotation (.htr) file 
[Header]	
#Header keywords are followed by a single value 
FileType HTR		#Single word string
DataType HTRS		#Translation followed by rotation and scale data
FileVersion 1		#integer
NumSegments 84		#integer
NumFrames 2		#integer
DataFrameRate 30		#integer, data frame rate in this file
EulerRotationOrder ZYX
CalibrationUnits mm
RotationUnits Degrees
GlobalAxisofGravity Y
BoneLengthAxis Y
ScaleFactor 1.00
[SegmentNames&Hierarchy]
#CHILD	PARENT
MASTER GLOBAL
root MASTER
chest root
L_mid_tent01 root
R_mid_tent01 root
spine01 root
Bip01_Neck chest
L_humerus chest
R_humerus chest
weapon_bone chest
Bip01_Head Bip01_Neck
eye_left_bone Bip01_Head
eye_right_bone Bip01_Head
L_forearm L_humerus
L_front_hand L_forearm
L_weapon_bone L_forearm
L_front_hand01_01 L_front_hand
L_front_hand02_01 L_front_hand
L_front_hand03_01 L_front_hand
L_front_hand01_02 L_front_hand01_01
L_front_hand02_02 L_front_hand02_01
L_front_hand03_02 L_front_hand03_01
R_forearm R_humerus
R_front_hand R_forearm
R_weapon_bone R_forearm
R_front_hand01_01 R_front_hand
R_front_hand02_01 R_front_hand
R_front_hand03_01 R_front_hand
R_front_hand01_02 R_front_hand01_01
R_front_hand02_02 R_front_hand02_01
R_front_hand03_02 R_front_hand03_01
null_rope01_connect L_mid_tent01
Rope1_Seg01 null_rope01_connect
Rope1_Seg02 Rope1_Seg01
Rope1_Seg03 Rope1_Seg02
Rope1_Seg04 Rope1_Seg03
Rope1_Seg05 Rope1_Seg04
Rope1_Seg06 Rope1_Seg05
Rope1_Seg07 Rope1_Seg06
Rope1_Seg09 Rope1_Seg07
L_mid_hand01 Rope1_Seg09
L_mid_hand02 Rope1_Seg09
L_mid_hand03 Rope1_Seg09
null_rope02_connect R_mid_tent01
Rope2_Seg01 null_rope02_connect
Rope2_Seg02 Rope2_Seg01
Rope2_Seg03 Rope2_Seg02
Rope2_Seg04 Rope2_Seg03
Rope2_Seg05 Rope2_Seg04
Rope2_Seg06 Rope2_Seg05
Rope2_Seg07 Rope2_Seg06
Rope2_Seg09 Rope2_Seg07
R_mid_hand01 Rope2_Seg09
R_mid_hand02 Rope2_Seg09
R_mid_hand03 Rope2_Seg09
spine02 spine01
spine03 spine02
pelvis spine03
null_rope03_connect pelvis
null_rope04_connect pelvis
Rope3_Seg01 null_rope03_connect
Rope3_Seg02 Rope3_Seg01
Rope3_Seg03 Rope3_Seg02
Rope3_Seg04 Rope3_Seg03
Rope3_Seg05 Rope3_Seg04
Rope3_Seg06 Rope3_Seg05
Rope3_Seg07 Rope3_Seg06
Rope3_Seg08 Rope3_Seg07
Rope3_Seg09 Rope3_Seg08
R_rear_hand01 Rope3_Seg09
R_rear_hand02 Rope3_Seg09
R_rear_hand03 Rope3_Seg09
Rope4_Seg01 null_rope04_connect
Rope4_Seg02 Rope4_Seg01
Rope4_Seg03 Rope4_Seg02
Rope4_Seg04 Rope4_Seg03
Rope4_Seg05 Rope4_Seg04
Rope4_Seg06 Rope4_Seg05
Rope4_Seg07 Rope4_Seg06
Rope4_Seg08 Rope4_Seg07
Rope4_Seg09 Rope4_Seg08
L_rear_hand01 Rope4_Seg09
L_rear_hand02 Rope4_Seg09
L_rear_hand03 Rope4_Seg09
[BasePosition]
#SegmentName Tx, Ty, Tz, Rx, Ry, Rz, BoneLength
MASTER 0.000000 0.000000 0.000000 -90.000000 0.000000 0.000000 10.000000 
root 0.000000 0.000000 0.000000 0.000000 0.000000 0.000000 10.000000 
chest 0.000000 0.000000 0.000000 0.000000 0.000000 0.000000 10.000000 
L_mid_tent01 0.000000 0.000000 0.000000 0.000000 0.000000 0.000000 10.000000 
R_mid_tent01 0.000000 0.000000 0.000000 0.000000 0.000000 0.000000 10.000000 
spine01 0.000000 0.000000 0.000000 0.000000 0.000000 0.000000 10.000000 
Bip01_Neck 0.000000 0.000000 0.000000 0.000000 0.000000 0.000000 10.000000 
L_humerus 0.000000 0.000000 0.000000 0.000000 0.000000 0.000000 10.000000 
R_humerus 0.000000 0.000000 0.000000 0.000000 0.000000 0.000000 10.000000 
weapon_bone 0.000000 0.000000 0.000000 0.000000 0.000000 0.000000 10.000000 
Bip01_Head 0.000000 0.000000 0.000000 0.000000 0.000000 0.000000 10.000000 
eye_left_bone 0.000000 0.000000 0.000000 0.000000 0.000000 0.000000 10.000000 
eye_right_bone 0.000000 0.000000 0.000000 0.000000 0.000000 0.000000 10.000000 
L_forearm 0.000000 0.000000 0.000000 0.000000 0.000000 0.000000 10.000000 
L_front_hand 0.000000 0.000000 0.000000 0.000000 0.000000 0.000000 10.000000 
L_weapon_bone 0.000000 0.000000 0.000000 0.000000 0.000000 0.000000 10.000000 
L_front_hand01_01 0.000000 0.000000 0.000000 0.000000 0.000000 0.000000 10.000000 
L_front_hand02_01 0.000000 0.000000 0.000000 0.000000 0.000000 0.000000 10.000000 
L_front_hand03_01 0.000000 0.000000 0.000000 0.000000 0.000000 0.000000 10.000000 
L_front_hand01_02 0.000000 0.000000 0.000000 0.000000 0.000000 0.000000 10.000000 
L_front_hand02_02 0.000000 0.000000 0.000000 0.000000 0.000000 0.000000 10.000000 
L_front_hand03_02 0.000000 0.000000 0.000000 0.000000 0.000000 0.000000 10.000000 
R_forearm 0.000000 0.000000 0.000000 0.000000 0.000000 0.000000 10.000000 
R_front_hand 0.000000 0.000000 0.000000 0.000000 0.000000 0.000000 10.000000 
R_weapon_bone 0.000000 0.000000 0.000000 0.000000 0.000000 0.000000 10.000000 
R_front_hand01_01 0.000000 0.000000 0.000000 0.000000 0.000000 0.000000 10.000000 
R_front_hand02_01 0.000000 0.000000 0.000000 0.000000 0.000000 0.000000 10.000000 
R_front_hand03_01 0.000000 0.000000 0.000000 0.000000 0.000000 0.000000 10.000000 
R_front_hand01_02 0.000000 0.000000 0.000000 0.000000 0.000000 0.000000 10.000000 
R_front_hand02_02 0.000000 0.000000 0.000000 0.000000 0.000000 0.000000 10.000000 
R_front_hand03_02 0.000000 0.000000 0.000000 0.000000 0.000000 0.000000 10.000000 
null_rope01_connect 0.000000 0.000000 0.000000 0.000000 0.000000 0.000000 10.000000 
Rope1_Seg01 0.000000 0.000000 0.000000 0.000000 0.000000 0.000000 10.000000 
Rope1_Seg02 0.000000 0.000000 0.000000 0.000000 0.000000 0.000000 10.000000 
Rope1_Seg03 0.000000 0.000000 0.000000 0.000000 0.000000 0.000000 10.000000 
Rope1_Seg04 0.000000 0.000000 0.000000 0.000000 0.000000 0.000000 10.000000 
Rope1_Seg05 0.000000 0.000000 0.000000 0.000000 0.000000 0.000000 10.000000 
Rope1_Seg06 0.000000 0.000000 0.000000 0.000000 0.000000 0.000000 10.000000 
Rope1_Seg07 0.000000 0.000000 0.000000 0.000000 0.000000 0.000000 10.000000 
Rope1_Seg09 0.000000 0.000000 0.000000 0.000000 0.000000 0.000000 10.000000 
L_mid_hand01 0.000000 0.000000 0.000000 0.000000 0.000000 0.000000 10.000000 
L_mid_hand02 0.000000 0.000000 0.000000 0.000000 0.000000 0.000000 10.000000 
L_mid_hand03 0.000000 0.000000 0.000000 0.000000 0.000000 0.000000 10.000000 
null_rope02_connect 0.000000 0.000000 0.000000 0.000000 0.000000 0.000000 10.000000 
Rope2_Seg01 0.000000 0.000000 0.000000 0.000000 0.000000 0.000000 10.000000 
Rope2_Seg02 0.000000 0.000000 0.000000 0.000000 0.000000 0.000000 10.000000 
Rope2_Seg03 0.000000 0.000000 0.000000 0.000000 0.000000 0.000000 10.000000 
Rope2_Seg04 0.000000 0.000000 0.000000 0.000000 0.000000 0.000000 10.000000 
Rope2_Seg05 0.000000 0.000000 0.000000 0.000000 0.000000 0.000000 10.000000 
Rope2_Seg06 0.000000 0.000000 0.000000 0.000000 0.000000 0.000000 10.000000 
Rope2_Seg07 0.000000 0.000000 0.000000 0.000000 0.000000 0.000000 10.000000 
Rope2_Seg09 0.000000 0.000000 0.000000 0.000000 0.000000 0.000000 10.000000 
R_mid_hand01 0.000000 0.000000 0.000000 0.000000 0.000000 0.000000 10.000000 
R_mid_hand02 0.000000 0.000000 0.000000 0.000000 0.000000 0.000000 10.000000 
R_mid_hand03 0.000000 0.000000 0.000000 0.000000 0.000000 0.000000 10.000000 
spine02 0.000000 0.000000 0.000000 0.000000 0.000000 0.000000 10.000000 
spine03 0.000000 0.000000 0.000000 0.000000 0.000000 0.000000 10.000000 
pelvis 0.000000 0.000000 0.000000 0.000000 0.000000 0.000000 10.000000 
null_rope03_connect 0.000000 0.000000 0.000000 0.000000 0.000000 0.000000 10.000000 
null_rope04_connect 0.000000 0.000000 0.000000 0.000000 0.000000 0.000000 10.000000 
Rope3_Seg01 0.000000 0.000000 0.000000 0.000000 0.000000 0.000000 10.000000 
Rope3_Seg02 0.000000 0.000000 0.000000 0.000000 0.000000 0.000000 10.000000 
Rope3_Seg03 0.000000 0.000000 0.000000 0.000000 0.000000 0.000000 10.000000 
Rope3_Seg04 0.000000 0.000000 0.000000 0.000000 0.000000 0.000000 10.000000 
Rope3_Seg05 0.000000 0.000000 0.000000 0.000000 0.000000 0.000000 10.000000 
Rope3_Seg06 0.000000 0.000000 0.000000 0.000000 0.000000 0.000000 10.000000 
Rope3_Seg07 0.000000 0.000000 0.000000 0.000000 0.000000 0.000000 10.000000 
Rope3_Seg08 0.000000 0.000000 0.000000 0.000000 0.000000 0.000000 10.000000 
Rope3_Seg09 0.000000 0.000000 0.000000 0.000000 0.000000 0.000000 10.000000 
R_rear_hand01 0.000000 0.000000 0.000000 0.000000 0.000000 0.000000 10.000000 
R_rear_hand02 0.000000 0.000000 0.000000 0.000000 0.000000 0.000000 10.000000 
R_rear_hand03 0.000000 0.000000 0.000000 0.000000 0.000000 0.000000 10.000000 
Rope4_Seg01 0.000000 0.000000 0.000000 0.000000 0.000000 0.000000 10.000000 
Rope4_Seg02 0.000000 0.000000 0.000000 0.000000 0.000000 0.000000 10.000000 
Rope4_Seg03 0.000000 0.000000 0.000000 0.000000 0.000000 0.000000 10.000000 
Rope4_Seg04 0.000000 0.000000 0.000000 0.000000 0.000000 0.000000 10.000000 
Rope4_Seg05 0.000000 0.000000 0.000000 0.000000 0.000000 0.000000 10.000000 
Rope4_Seg06 0.000000 0.000000 0.000000 0.000000 0.000000 0.000000 10.000000 
Rope4_Seg07 0.000000 0.000000 0.000000 0.000000 0.000000 0.000000 10.000000 
Rope4_Seg08 0.000000 0.000000 0.000000 0.000000 0.000000 0.000000 10.000000 
Rope4_Seg09 0.000000 0.000000 0.000000 0.000000 0.000000 0.000000 10.000000 
L_rear_hand01 0.000000 0.000000 0.000000 0.000000 0.000000 0.000000 10.000000 
L_rear_hand02 0.000000 0.000000 0.000000 0.000000 0.000000 0.000000 10.000000 
L_rear_hand03 0.000000 0.000000 0.000000 0.000000 0.000000 0.000000 10.000000 
#Beginning of Data. Separated by tabs
#Fr	Tx	Ty	Tz	Rx	Ry	Rz	SF
[MASTER]
9 0.000000 0.000000 0.000000 0.001660 0.001660 0.001660 0.000000
10 0.000000 0.000000 0.000000 0.001660 0.001660 0.001660 0.000000
[root]
9 -11.290827 -20.062241 892.172974 -110.667908 -16.324394 -76.489708 892.469971
10 -12.271224 -12.925388 760.432251 -108.979393 -15.688720 -77.575279 760.641052
[chest]
9 -84.512650 -34.090519 0.000000 3.951529 -0.269114 -175.551117 91.129311
10 -84.512650 -34.090519 0.000000 0.695071 0.519852 178.018112 91.129311
[L_mid_tent01]
9 27.299522 22.177502 -249.918274 3.323156 25.016293 68.849991 252.381165
10 27.299528 22.177494 -249.918274 3.534265 25.584391 68.962639 252.381165
[R_mid_tent01]
9 23.228794 24.509907 226.238495 177.649841 -24.302092 56.726925 228.744751
10 23.228794 24.509907 226.238495 -179.772446 -24.411167 56.378639 228.744751
[spine01]
9 -0.361383 -0.195265 0.000000 0.001845 0.001451 13.654368 0.410763
10 -0.361383 -0.195265 0.000000 0.001845 0.001451 13.654367 0.410763
[Bip01_Neck]
9 165.484543 71.581718 0.000119 176.643677 -1.657967 43.431911 180.302734
10 165.484543 71.581718 0.000119 176.643677 -1.657967 43.431911 180.302734
[L_humerus]
9 -13.983130 -135.272980 -120.471481 138.211899 78.224846 -130.763153 181.680161
10 -13.983130 -135.272980 -120.471481 143.598450 70.922585 -133.003601 181.680161
[R_humerus]
9 -13.983309 -135.273102 125.287651 -170.022949 -72.529083 -95.070641 184.909012
10 -13.983309 -135.273102 125.287651 -164.139877 -62.886070 -111.760292 184.909012
[weapon_bone]
9 235.964890 -300.705902 0.000000 0.000000 -89.951546 -128.212341 382.234833
10 235.964890 -300.705902 0.000000 0.000000 -89.951546 -128.212341 382.234833
[Bip01_Head]
9 213.534698 185.833664 10.252337 4.440187 -0.518443 -43.900719 283.260162
10 213.478622 185.941803 8.855934 4.439387 -0.225299 -43.899635 283.241760
[eye_left_bone]
9 -24.626970 125.451866 -64.772606 0.000000 -90.000000 -99.840431 143.318359
10 -24.626970 125.451866 -64.772606 0.000000 -90.000000 -99.840431 143.318359
[eye_right_bone]
9 -24.626970 125.451866 64.327362 0.000000 -89.965736 80.156380 143.117676
10 -24.626970 125.451866 64.327362 0.000000 -89.965736 80.156380 143.117676
[L_forearm]
9 322.776093 0.000000 -0.000119 0.000267 -0.002332 -103.044228 322.776093
10 322.776093 0.000000 -0.000119 0.000311 -0.002327 -105.220123 322.776093
[L_front_hand]
9 241.149185 -0.042021 -3.300071 -178.667953 -1.835447 -27.422350 241.171753
10 241.149185 -0.042021 -3.300071 -178.667953 -1.835447 -27.422350 241.171753
[L_weapon_bone]
9 156.183838 0.000000 0.000000 0.000014 0.000007 0.000001 156.183838
10 156.183838 0.000000 0.000000 0.000014 0.000007 0.000001 156.183838
[L_front_hand01_01]
9 86.095154 20.947098 -0.655860 -0.320921 -0.506953 70.185371 88.609184
10 86.095154 20.947098 -0.655860 -0.335131 -0.500211 71.723785 88.609184
[L_front_hand02_01]
9 86.935165 -11.437475 24.513514 146.961258 -57.333782 -52.657829 91.046425
10 86.935165 -11.437475 24.513514 149.028946 -58.148323 -55.100948 91.046425
[L_front_hand03_01]
9 86.637497 -14.123976 -20.424902 -146.985443 55.548393 -54.432812 90.126129
10 86.637497 -14.123976 -20.424902 -148.918808 56.366669 -56.764694 90.126129
[L_front_hand01_02]
9 71.020905 -0.000179 0.000030 0.000323 -0.002325 -105.812233 71.020905
10 71.020905 -0.000179 0.000030 0.000326 -0.002324 -105.969223 71.020905
[L_front_hand02_02]
9 71.020927 -0.000119 0.000060 0.000323 -0.002325 -105.812233 71.020927
10 71.020927 -0.000119 0.000060 0.000326 -0.002324 -105.969223 71.020927
[L_front_hand03_02]
9 71.020905 -0.000060 0.000060 0.000323 -0.002325 -105.812233 71.020905
10 71.020905 -0.000060 0.000060 0.000326 -0.002324 -105.969223 71.020905
[R_forearm]
9 322.776428 -0.000060 0.000030 0.211467 0.031923 -99.052094 322.776428
10 322.776428 -0.000060 0.000030 0.210832 0.035881 -101.200035 322.776428
[R_front_hand]
9 238.847015 -0.006795 2.210259 -2.635298 -10.645461 -26.312506 238.857239
10 238.847015 -0.006795 2.210259 -2.635298 -10.645461 -26.312506 238.857239
[R_weapon_bone]
9 155.664093 0.002503 -0.000030 0.003487 0.001180 -90.988930 155.664078
10 155.664093 0.002503 -0.000030 0.003487 0.001180 -90.988930 155.664078
[R_front_hand01_01]
9 87.624611 14.231146 22.918642 -147.368515 -57.499996 53.246597 91.683487
10 87.624611 14.231146 22.918642 -150.820541 -58.784569 57.311836 91.683487
[R_front_hand02_01]
9 89.356956 14.367283 -19.491137 147.772629 55.873177 55.617874 92.579636
10 89.356956 14.367283 -19.491137 151.027069 57.144753 59.518578 92.579636
[R_front_hand03_01]
9 87.286232 -22.307278 -0.143439 0.124412 -0.437303 -70.732681 90.091743
10 87.286232 -22.307278 -0.143439 0.144811 -0.432555 -73.232849 90.091743
[R_front_hand01_02]
9 71.020905 0.000060 0.000119 0.002323 -0.000334 106.381714 71.020905
10 71.020905 0.000060 0.000119 0.002323 -0.000334 106.381714 71.020905
[R_front_hand02_02]
9 71.020844 -0.000030 -0.000119 0.002323 -0.000334 106.381714 71.020836
10 71.020844 -0.000030 -0.000119 0.002323 -0.000334 106.381714 71.020836
[R_front_hand03_02]
9 71.020905 0.000000 0.000030 0.002323 -0.000334 106.381714 71.020905
10 71.020905 0.000000 0.000030 0.002323 -0.000334 106.381714 71.020905
[null_rope01_connect]
9 328.732483 0.000000 -0.000238 -160.350632 -51.740681 -154.596268 328.732483
10 328.732483 0.000000 -0.000238 -159.327286 -52.424477 -156.905670 328.732483
[Rope1_Seg01]
9 0.000000 0.000000 0.000000 88.616447 -21.971338 -157.691422 0.000000
10 0.000000 0.000000 0.000000 103.532585 -8.724143 -171.762024 0.000000
[Rope1_Seg02]
9 139.999863 -0.000179 0.000000 21.068336 -23.589455 -20.919243 139.999863
10 139.999863 -0.000179 0.000000 16.252794 -28.201845 -14.183637 139.999863
[Rope1_Seg03]
9 139.999924 0.000060 -0.000060 22.961016 -47.104729 -25.727901 139.999924
10 139.999924 0.000060 -0.000060 6.043014 -38.106495 -7.689465 139.999924
[Rope1_Seg04]
9 139.999924 -0.000060 -0.000119 -0.483935 -19.057734 -4.130560 139.999924
10 139.999924 -0.000060 -0.000119 -2.109743 -16.823347 -2.766863 139.999924
[Rope1_Seg05]
9 139.999832 0.000119 -0.000060 -0.905428 -5.789942 -2.631921 139.999832
10 139.999832 0.000119 -0.000060 -1.602371 -5.403394 -4.756985 139.999832
[Rope1_Seg06]
9 139.999954 0.000119 -0.000060 -0.913707 -4.745999 -2.163409 139.999954
10 139.999954 0.000119 -0.000060 -1.337498 -3.870517 -5.076901 139.999954
[Rope1_Seg07]
9 139.999985 0.000060 0.000000 -0.810109 -3.739142 -1.510917 139.999985
10 139.999985 0.000060 0.000000 -1.047066 -3.848660 -3.264383 139.999985
[Rope1_Seg09]
9 121.602913 0.000119 -0.000089 -89.793175 -1.359789 0.847147 121.602913
10 121.602913 0.000119 -0.000089 -89.793175 -1.359789 0.847147 121.602913
[L_mid_hand01]
9 103.859421 1.038730 8.195221 109.056198 -40.604698 -13.201401 104.187431
10 103.859421 1.038730 8.195221 109.056198 -40.604698 -13.201401 104.187431
[L_mid_hand02]
9 105.572853 -4.139662 -10.864139 -146.713593 31.476528 -37.902313 106.211075
10 105.572853 -4.139662 -10.864139 -146.713593 31.476517 -37.902306 106.211075
[L_mid_hand03]
9 104.641464 17.579376 -3.913581 -14.267233 12.322316 43.898396 106.179977
10 104.641464 17.579376 -3.913581 -14.267233 12.322316 43.898396 106.179977
[null_rope02_connect]
9 328.732849 0.000179 -0.000119 -78.632004 61.864410 53.370480 328.732849
10 328.732849 0.000179 -0.000119 -85.890289 64.469002 46.842316 328.732849
[Rope2_Seg01]
9 0.000076 0.000111 0.000153 -44.924259 -6.893809 32.951668 0.000203
10 0.000076 0.000111 0.000153 -44.259502 -18.385731 35.984474 0.000203
[Rope2_Seg02]
9 139.999741 -0.000060 -0.000119 -2.240256 0.158011 19.864687 139.999756
10 139.999741 -0.000060 -0.000119 -0.357728 2.889598 12.937522 139.999756
[Rope2_Seg03]
9 140.000107 0.000030 0.000000 -0.077296 -2.310078 13.489346 140.000107
10 140.000107 0.000030 0.000000 0.290065 2.622020 13.410573 140.000107
[Rope2_Seg04]
9 139.999802 0.000000 -0.000060 0.928435 -0.139360 8.817801 139.999802
10 139.999802 0.000000 -0.000060 0.615224 1.506752 10.008786 139.999802
[Rope2_Seg05]
9 139.999985 -0.000060 0.000119 2.539468 5.931970 12.212527 139.999985
10 139.999985 -0.000060 0.000119 1.577509 3.920258 12.955372 139.999985
[Rope2_Seg06]
9 139.999893 -0.000030 -0.000119 3.032639 8.534107 14.673476 139.999893
10 139.999893 -0.000030 -0.000119 4.448904 8.665158 23.345491 139.999893
[Rope2_Seg07]
9 139.999893 0.000060 -0.000060 1.485880 5.676042 10.255562 139.999893
10 139.999893 0.000060 -0.000060 3.365913 7.380752 17.940201 139.999893
[Rope2_Seg09]
9 121.338966 0.000089 -0.000060 33.793236 -1.359788 -0.847141 121.338966
10 121.338966 0.000089 -0.000060 33.793236 -1.359788 -0.847141 121.338966
[R_mid_hand01]
9 104.680779 11.144459 -10.335981 -37.204067 31.906805 37.576252 105.778534
10 104.680779 11.144459 -10.335981 -37.204079 31.906813 37.576260 105.778534
[R_mid_hand02]
9 104.070427 2.443552 8.231699 70.367462 -42.427391 14.067811 104.424065
10 104.070427 2.443552 8.231699 70.367462 -42.427391 14.067809 104.424065
[R_mid_hand03]
9 106.028137 -11.221827 -5.996406 -169.893616 12.226661 -47.211018 106.788818
10 106.028137 -11.221827 -5.996406 -169.893616 12.226658 -47.211018 106.788818
[spine02]
9 129.756927 0.001550 0.000119 -1.023899 -3.926965 6.770993 129.756927
10 129.756927 0.001550 0.000119 -1.023899 -3.926965 6.770993 129.756927
[spine03]
9 78.613846 0.087372 -4.898873 1.040681 4.146420 4.212376 78.766380
10 78.613846 0.087372 -4.898873 1.040681 4.146420 4.212376 78.766380
[pelvis]
9 169.435242 0.051022 0.000000 0.019518 -0.190233 -10.721436 169.435257
10 169.435242 0.051022 0.000000 0.019518 -0.190233 -10.721436 169.435257
[null_rope03_connect]
9 -1.257226 -2.466202 137.391083 160.665009 -68.649971 -65.780075 137.418976
10 -1.257226 -2.466202 137.391083 159.934158 -70.209541 -66.046707 137.418976
[null_rope04_connect]
9 -1.259640 -2.480268 -137.844437 160.665009 -68.649971 -65.780075 137.872513
10 -1.259640 -2.480268 -137.844437 159.934158 -70.209541 -66.046707 137.872513
[Rope3_Seg01]
9 0.000000 0.000000 0.000000 -138.469254 -13.925586 -17.352659 0.000000
10 0.000000 0.000000 0.000000 -150.958694 -20.438200 -16.292606 0.000000
[Rope3_Seg02]
9 139.999924 -0.000119 0.000060 21.663589 -10.753629 7.877334 139.999924
10 139.999924 -0.000119 0.000060 20.145748 -9.238855 7.320441 139.999924
[Rope3_Seg03]
9 139.999924 -0.000119 0.000119 20.380747 -10.988428 18.198198 139.999924
10 139.999924 -0.000119 0.000119 20.865683 -10.569900 18.046762 139.999924
[Rope3_Seg04]
9 139.999924 0.000119 0.000000 9.335847 -3.610621 20.897099 139.999924
10 139.999924 0.000119 0.000000 10.314747 -3.187952 26.234095 139.999924
[Rope3_Seg05]
9 139.999924 -0.000238 0.000060 4.417907 0.447270 26.592234 139.999924
10 139.999924 -0.000238 0.000060 3.369728 0.257774 22.906555 139.999924
[Rope3_Seg06]
9 139.999893 -0.000119 -0.000060 -0.682254 2.734228 28.711863 139.999893
10 139.999893 -0.000119 -0.000060 -0.833490 0.414407 24.994930 139.999893
[Rope3_Seg07]
9 139.999771 0.000060 -0.000119 -2.698545 0.935816 13.173326 139.999771
10 139.999771 0.000060 -0.000119 -3.114842 0.244797 15.458393 139.999771
[Rope3_Seg08]
9 139.999985 -0.000060 0.000000 -1.847976 0.143230 6.314077 139.999985
10 139.999985 -0.000060 0.000000 -2.365012 -0.257961 7.585988 139.999985
[Rope3_Seg09]
9 90.185997 -0.000179 -0.000060 89.793228 -1.359877 -0.847183 90.185997
10 90.185997 -0.000179 -0.000060 89.793228 -1.359877 -0.847183 90.185997
[R_rear_hand01]
9 103.366196 -6.073594 -10.757982 -164.755127 19.627697 -40.352161 104.101845
10 103.366196 -6.073594 -10.757982 -164.755127 19.627697 -40.352161 104.101845
[R_rear_hand02]
9 100.509819 12.039542 -7.992327 -30.792652 24.782448 38.141541 101.543350
10 100.509819 12.039542 -7.992327 -30.792652 24.782448 38.141541 101.543350
[R_rear_hand03]
9 101.539970 5.215704 5.435467 82.448349 -41.048256 8.840378 101.819031
10 101.539970 5.215704 5.435467 82.448349 -41.048256 8.840378 101.819031
[Rope4_Seg01]
9 -0.000009 -0.000063 -0.000100 64.978508 -49.382393 -116.445412 0.000118
10 -0.000008 -0.000061 -0.000093 73.914536 -52.549995 -125.855850 0.000112
[Rope4_Seg02]
9 139.999985 0.000060 0.000119 -6.150023 -5.840688 -16.973257 139.999985
10 139.999985 0.000060 0.000119 -13.214665 0.698085 -22.974554 139.999985
[Rope4_Seg03]
9 139.999924 0.000000 -0.000238 -22.628080 -1.359798 -30.317202 139.999924
10 139.999924 0.000000 -0.000238 -29.668570 10.841081 -38.707272 139.999924
[Rope4_Seg04]
9 139.999985 0.000000 0.000119 -28.255547 1.630087 -28.470152 139.999985
10 139.999985 0.000000 0.000119 -13.695957 16.178492 -19.274689 139.999985
[Rope4_Seg05]
9 139.999802 -0.000060 -0.000119 -27.559263 -3.450271 -24.457172 139.999802
10 139.999802 -0.000060 -0.000119 -8.177152 12.554164 -16.953426 139.999802
[Rope4_Seg06]
9 139.999924 0.000000 0.000060 -13.719037 4.508051 -9.103389 139.999924
10 139.999924 0.000000 0.000060 -4.894023 12.315234 -13.820148 139.999924
[Rope4_Seg07]
9 139.999802 0.000000 0.000000 -6.334476 3.706892 -3.990485 139.999802
10 139.999802 0.000000 0.000000 -1.330035 7.751561 -6.893934 139.999802
[Rope4_Seg08]
9 139.999924 0.000000 0.000119 -4.684715 2.287276 -1.978259 139.999924
10 139.999924 0.000000 0.000119 -1.826025 4.308716 -3.695857 139.999924
[Rope4_Seg09]
9 90.185791 0.000060 0.000060 -135.617828 2.228885 0.850567 90.185791
10 90.185791 0.000060 0.000060 -135.617828 2.228885 0.850567 90.185791
[L_rear_hand01]
9 101.696655 -8.392275 -7.654577 -31.684452 -23.583008 144.025742 102.329041
10 101.696655 -8.392275 -7.654577 -31.684452 -23.583008 144.025742 102.329041
[L_rear_hand02]
9 102.726799 -1.568258 5.773216 82.701553 38.753956 171.553619 102.900848
10 102.726799 -1.568258 5.773216 82.701553 38.753956 171.553619 102.900848
[L_rear_hand03]
9 104.552910 9.721220 -10.420293 -163.975388 -19.004423 -142.009338 105.519653
10 104.552910 9.721220 -10.420293 -163.975388 -19.004423 -142.009338 105.519653
